<svg xmlns="http://www.w3.org/2000/svg" viewBox="0 0 1200 420" width="1200" height="420" preserveAspectRatio="xMidYMid slice">
  <defs>
    <linearGradient id="bg" x1="0" y1="0" x2="1" y2="1"><stop offset="0" stop-color="#0b1220"/><stop offset="0.5" stop-color="#1e3a8a"/><stop offset="1" stop-color="#312e81"/></linearGradient>
    <linearGradient id="line" x1="0" y1="0" x2="1" y2="0"><stop offset="0" stop-color="#22c55e" stop-opacity="0.2"/><stop offset="1" stop-color="#22c55e"/></linearGradient>
    <pattern id="grid" width="48" height="48" patternUnits="userSpaceOnUse"><path d="M48 0H0V48" fill="none" stroke="#fff" stroke-opacity="0.06"/></pattern>
    <radialGradient id="glow" cx="0.2" cy="0.3" r="0.6"><stop offset="0" stop-color="#3b82f6" stop-opacity="0.45"/><stop offset="1" stop-color="#3b82f6" stop-opacity="0"/></radialGradient>
  </defs>
  <rect width="1200" height="420" fill="url(#bg)"/>
  <rect width="1200" height="420" fill="url(#grid)"/>
  <rect width="1200" height="420" fill="url(#glow)"/>
  <g opacity="0.35" fill="#fff">
    <rect x="80" y="330" width="280" height="14" rx="4"/>
    <rect x="100" y="230" width="22" height="96"/><rect x="150" y="230" width="22" height="96"/><rect x="200" y="230" width="22" height="96"/><rect x="250" y="230" width="22" height="96"/><rect x="300" y="230" width="22" height="96"/>
    <rect x="90" y="210" width="260" height="16" rx="4"/>
  </g>
  <path d="M90 212 L220 130 L350 212 Z" fill="#fde047" opacity="0.6"/>
  <polyline points="700,300 780,270 850,290 920,200 990,230 1060,150 1130,120" fill="none" stroke="url(#line)" stroke-width="6" stroke-linecap="round" stroke-linejoin="round"/>
  <g fill="#22c55e"><circle cx="1130" cy="120" r="9"/><circle cx="920" cy="200" r="7" opacity="0.8"/></g>
  <g fill="#fff" opacity="0.1"><circle cx="1000" cy="80" r="60"/><circle cx="760" cy="360" r="40"/></g>
</svg>
